<svg width="24" height="24" viewBox="0 0 24 24" fill="none" xmlns="http://www.w3.org/2000/svg">
<g clip-path="url(#clip0_4_559)">
<path d="M10.8703 6.51257H12.2766V7.91882H10.8703V6.51257Z" fill="white"/>
<path d="M21.2237 8.62193C21.2237 7.45882 20.2775 6.51255 19.1144 6.51255H15.2109L14.7909 4.11869L14.5315 3.95215C12.4985 2.64677 10.1389 2.43991 8.51392 2.49757C6.8942 2.50043 5.29792 3.02355 3.76937 4.05265C2.65707 4.80152 1.59878 5.80329 0.623917 7.03015C0.0948857 7.69591 -0.111458 8.55649 0.0578544 9.39129C0.227776 10.2292 0.755776 10.9445 1.50629 11.3538L2.48678 11.8883L0.666198 15.0951L0.679276 15.3041C0.683636 15.3738 0.80298 17.029 2.27659 18.6148C3.12029 19.5229 4.23784 20.2295 5.5981 20.7154C7.07846 21.244 8.8554 21.5109 10.8889 21.5109C11.1204 21.5109 11.3556 21.5074 11.5938 21.5005L12.1199 21.4852L13.3108 16.9458C14.5861 17.3204 15.5372 17.07 16.1445 16.758C16.9378 16.3502 17.3227 15.7531 17.364 15.6864L17.7531 15.0555L17.1029 14.6994C17.0979 14.6966 16.5956 14.4198 16.1146 14.0096C15.9293 13.8516 15.7722 13.6941 15.648 13.5438H17.708C19.6465 13.5438 21.2236 11.9667 21.2236 10.0282V8.62193H21.2237ZM19.8175 8.62193V9.32505H19.1144C18.7267 9.32505 18.4112 9.00963 18.4112 8.62193V7.9188H19.1144C19.502 7.9188 19.8175 8.23418 19.8175 8.62193ZM2.17951 10.1191C1.79425 9.90907 1.52331 9.5419 1.43607 9.11177C1.34945 8.68483 1.45473 8.24496 1.72492 7.90497C3.98696 5.05812 6.17035 4.14762 7.78848 3.94933C7.68512 5.37916 7.27595 8.52194 5.65726 10.6145C5.2156 11.1854 4.42956 11.3459 3.78798 10.9961L2.17951 10.1191ZM17.7081 12.1376H13.9411L13.9176 12.8163C13.8914 13.575 14.3304 14.3422 15.2225 15.0968C15.3653 15.2177 15.5083 15.3283 15.6433 15.4267C15.5834 15.4642 15.5184 15.5003 15.4481 15.5337C14.806 15.8393 14.0224 15.786 13.1192 15.3751L12.3597 15.0296L11.0285 20.1041C7.53268 20.1253 4.89104 19.3064 3.37037 17.7247C2.45073 16.7682 2.1842 15.8008 2.10985 15.4007L3.76248 12.4897C4.0082 12.5554 4.25818 12.588 4.50643 12.588C5.36879 12.588 6.20945 12.1991 6.7696 11.4749C8.68759 8.99543 9.11035 5.40621 9.2034 3.89702C10.4853 3.91901 12.0917 4.15385 13.5139 4.9781L14.0298 7.91871H17.005V8.62183C17.005 9.78494 17.9513 10.7312 19.1144 10.7312H19.6966C19.4063 11.5497 18.6247 12.1376 17.7081 12.1376Z" fill="white"/>
<path d="M21.8906 13.0411H24V14.4474H21.8906V13.0411Z" fill="white"/>
<path d="M20.3598 16.728L21.3541 15.7337L22.8453 17.225L21.8511 18.2193L20.3598 16.728Z" fill="white"/>
<path d="M17.6719 17.2599H19.0781V19.3693H17.6719V17.2599Z" fill="white"/>
</g>
<defs>
<clipPath id="clip0_4_559">
<rect width="24" height="24" fill="white"/>
</clipPath>
</defs>
</svg>
