<svg width="24" height="24" viewBox="0 0 24 24" fill="none" xmlns="http://www.w3.org/2000/svg">
<path d="M10.9871 12.8685C11.8688 12.2991 13.0229 12.2991 13.9077 12.8685C13.9138 12.8715 13.9199 12.8746 13.923 12.8807C14.1679 13.0399 14.37 13.2114 14.5414 13.3736C14.8384 13.6583 14.9394 14.093 14.7833 14.4727C14.5812 14.9594 14.2659 15.5503 13.7607 16.1319C13.3015 16.6646 12.827 17.0259 12.4474 17.2708C12.0678 17.0259 11.5932 16.6646 11.134 16.1319C10.6289 15.5503 10.3136 14.9594 10.1115 14.4727C9.95844 14.1022 10.0503 13.6767 10.335 13.395C10.5064 13.2267 10.7177 13.0491 10.9718 12.8838C10.9779 12.8807 10.984 12.8777 10.9901 12.8715L10.9871 12.8685Z" fill="white"/>
<path d="M10.8956 13.779C11.0701 13.6106 11.3334 13.5585 11.5599 13.6504C11.5599 13.6504 11.5599 13.6504 11.563 13.6504C11.6273 13.6749 11.6793 13.7055 11.7253 13.7361C11.8049 13.7881 11.8477 13.883 11.8293 13.9749C11.8049 14.0943 11.7589 14.2443 11.6701 14.3974C11.5906 14.5382 11.4956 14.6423 11.4222 14.7157C11.3242 14.6759 11.2018 14.6147 11.0732 14.5137C10.9323 14.4035 10.8344 14.2841 10.767 14.18C10.715 14.1035 10.718 14.0024 10.7701 13.9259C10.8007 13.88 10.8405 13.831 10.8925 13.782C10.8925 13.782 10.8925 13.782 10.8956 13.779Z" fill="#FCFCFC"/>
<path d="M3 4.03135C3.55106 3.39458 4.27356 2.91087 5.09402 2.64453" stroke="white" stroke-width="1.2" stroke-miterlimit="10" stroke-linecap="round"/>
<path d="M6.53583 11.3079C7.69739 11.3079 8.63903 10.3663 8.63903 9.20475C8.63903 8.0432 7.69739 7.10156 6.53583 7.10156C5.37426 7.10156 4.43262 8.0432 4.43262 9.20475C4.43262 10.3663 5.37426 11.3079 6.53583 11.3079Z" fill="white"/>
<path d="M4.63477 14.8789C5.09092 16.9882 6.96758 18.5679 9.21161 18.5679C10.4668 18.5679 11.6057 18.075 12.4476 17.2668C13.2894 18.075 14.4283 18.5679 15.6835 18.5679C17.9275 18.5679 19.8042 16.9882 20.2573 14.8789" stroke="white" stroke-width="1.2" stroke-miterlimit="10" stroke-linecap="round"/>
<path d="M20.3611 3.29192C19.7794 2.68269 19.0385 2.22961 18.2089 2" stroke="white" stroke-width="1.2" stroke-miterlimit="10" stroke-linecap="round"/>
<path d="M14.8056 21.0742C14.2637 21.6467 13.4984 22.0018 12.6504 22.0018C11.8024 22.0018 11.037 21.6467 10.4951 21.0742" stroke="white" stroke-width="1.2" stroke-miterlimit="10" stroke-linecap="round"/>
<path d="M5.79773 8.96441C6.03275 8.96441 6.22327 8.7739 6.22327 8.53888C6.22327 8.30386 6.03275 8.11334 5.79773 8.11334C5.56271 8.11334 5.37219 8.30386 5.37219 8.53888C5.37219 8.7739 5.56271 8.96441 5.79773 8.96441Z" fill="#FCFCFC"/>
<path d="M17.864 11.3079C19.0255 11.3079 19.9672 10.3663 19.9672 9.20475C19.9672 8.0432 19.0255 7.10156 17.864 7.10156C16.7024 7.10156 15.7607 8.0432 15.7607 9.20475C15.7607 10.3663 16.7024 11.3079 17.864 11.3079Z" fill="white"/>
<path d="M17.1228 8.96435C17.3578 8.96435 17.5483 8.77383 17.5483 8.53882C17.5483 8.3038 17.3578 8.11328 17.1228 8.11328C16.8878 8.11328 16.6973 8.3038 16.6973 8.53882C16.6973 8.77383 16.8878 8.96435 17.1228 8.96435Z" fill="#FCFCFC"/>
</svg>
