<svg width="24" height="24" viewBox="0 0 24 24" fill="none" xmlns="http://www.w3.org/2000/svg">
<path fill-rule="evenodd" clip-rule="evenodd" d="M22.8557 3.44524C22.6979 3.16685 22.3963 2.99982 22.0715 2.99982L2.91385 3.01374C2.52875 3.01374 2.19468 3.25037 2.06013 3.60763C1.96269 3.86746 1.98589 4.14584 2.1158 4.37319C2.16684 4.45671 2.2318 4.53559 2.31068 4.60518L9.69258 10.971L11.4928 20.5336C11.5624 20.9094 11.8501 21.1878 12.2305 21.2481C12.6064 21.3084 12.9775 21.1321 13.1724 20.8027L22.851 4.35C23.0181 4.06697 23.0181 3.72362 22.8557 3.44524ZM4.21763 4.39175H19.8166L10.4257 9.75071L4.21763 4.39175ZM12.6249 18.9839L11.1124 10.9478L20.5172 5.58418L12.6249 18.9839Z" fill="white"/>
</svg>
