<svg width="31" height="32" viewBox="0 0 31 32" fill="none" xmlns="http://www.w3.org/2000/svg">
<path d="M9.74445 23.1144C5.23462 23.1144 1.36905 27.0337 0 28.9933V27.7048C0.826766 23.0339 2.70903 12.8385 3.62397 9.42391C4.76764 5.15568 5.07872 4.58738 7.8922 2.09544C10.7108 -0.40109 23.9987 -1.12587 27.6227 2.4981C31.2467 6.12207 32.3741 11.0392 28.7501 17.3161C25.1262 23.593 15.3817 23.1144 9.74445 23.1144Z" fill="#F25912"/>
<path d="M5.07367 31.8231C2.42882 32.5318 1.01879 30.9372 0.644379 30.0514C3.24815 25.5415 7.84976 24.1456 9.8251 24.0114C9.93402 23.904 9.95767 24.4141 9.18084 27.3133C8.2098 30.9372 8.37974 30.9372 5.07367 31.8231Z" fill="#4C0004"/>
</svg>
