<svg width="32" height="32" viewBox="0 0 32 32" fill="none" xmlns="http://www.w3.org/2000/svg">
<path d="M28.2733 10.3533C27.941 9.64194 27.402 9.0472 26.7267 8.64667L18.1 3.31334C17.4672 2.92131 16.7377 2.71362 15.9933 2.71362C15.249 2.71362 14.5194 2.92131 13.8867 3.31334L5.26 8.64667C4.60604 9.06316 4.08723 9.66073 3.76666 10.3667C3.43366 11.0726 3.32211 11.8628 3.44666 12.6333L5.68666 25.9667C5.8303 26.8965 6.30355 27.7436 7.02 28.3533C7.73076 28.9486 8.62624 29.2786 9.55333 29.2867H22.38C23.3254 29.291 24.2418 28.9604 24.9667 28.3533C25.6869 27.7467 26.161 26.898 26.3 25.9667L28.54 12.6333C28.6758 11.8636 28.5831 11.071 28.2733 10.3533ZM20.46 23.2867H11.54C11.1864 23.2867 10.8472 23.1462 10.5972 22.8961C10.3471 22.6461 10.2067 22.307 10.2067 21.9533C10.2067 21.5997 10.3471 21.2606 10.5972 21.0105C10.8472 20.7605 11.1864 20.62 11.54 20.62H20.46C20.8136 20.62 21.1528 20.7605 21.4028 21.0105C21.6529 21.2606 21.7933 21.5997 21.7933 21.9533C21.7933 22.307 21.6529 22.6461 21.4028 22.8961C21.1528 23.1462 20.8136 23.2867 20.46 23.2867Z" fill="#F25912"/>
</svg>
