<svg width="32" height="32" viewBox="0 0 32 32" fill="none" xmlns="http://www.w3.org/2000/svg">
<path fill-rule="evenodd" clip-rule="evenodd" d="M17.3333 4.00002C17.3333 3.6464 17.1929 3.30726 16.9428 3.05721C16.6928 2.80716 16.3536 2.66669 16 2.66669C15.6464 2.66669 15.3072 2.80716 15.0572 3.05721C14.8071 3.30726 14.6667 3.6464 14.6667 4.00002V5.00002H13.924C12.4947 4.99993 11.1191 5.54454 10.0772 6.523C9.03536 7.50146 8.40555 8.8402 8.31601 10.2667L8.02134 14.9787C7.90743 16.775 7.30433 18.5059 6.27734 19.984C6.06485 20.2894 5.93501 20.6446 5.90046 21.0151C5.86591 21.3856 5.92781 21.7587 6.08016 22.0981C6.2325 22.4375 6.47009 22.7318 6.76983 22.9522C7.06957 23.1726 7.42125 23.3118 7.79067 23.356L12.3333 23.9V25.3334C12.3333 26.3058 12.7196 27.2384 13.4073 27.9261C14.0949 28.6137 15.0275 29 16 29C16.9725 29 17.9051 28.6137 18.5927 27.9261C19.2804 27.2384 19.6667 26.3058 19.6667 25.3334V23.9L24.2093 23.3547C24.5785 23.3103 24.93 23.1712 25.2295 22.9508C25.5291 22.7305 25.7666 22.4364 25.9189 22.0972C26.0712 21.7579 26.1332 21.385 26.0988 21.0148C26.0644 20.6445 25.9348 20.2894 25.7227 19.984C24.6957 18.5059 24.0926 16.775 23.9787 14.9787L23.684 10.268C23.5948 8.8413 22.9651 7.50223 21.9232 6.52349C20.8813 5.54475 19.5055 4.99995 18.076 5.00002H17.3333V4.00002ZM14.3333 25.3334C14.3333 25.7754 14.5089 26.1993 14.8215 26.5119C15.1341 26.8244 15.558 27 16 27C16.442 27 16.866 26.8244 17.1785 26.5119C17.4911 26.1993 17.6667 25.7754 17.6667 25.3334V24.3334H14.3333V25.3334Z" fill="#E7E8E9"/>
</svg>
