<svg width="32" height="32" viewBox="0 0 32 32" fill="none" xmlns="http://www.w3.org/2000/svg">
<g clip-path="url(#clip0_13_87)">
<path d="M16 2.66669C17.3186 2.66669 18.6075 3.05768 19.7038 3.79022C20.8001 4.52277 21.6546 5.56396 22.1592 6.78213C22.6638 8.0003 22.7958 9.34075 22.5386 10.634C22.2813 11.9272 21.6464 13.115 20.7141 14.0474C19.7817 14.9797 18.5938 15.6147 17.3006 15.8719C16.0074 16.1292 14.667 15.9971 13.4488 15.4926C12.2306 14.988 11.1894 14.1335 10.4569 13.0372C9.72434 11.9408 9.33334 10.6519 9.33334 9.33335L9.34001 9.04402C9.41457 7.32769 10.1488 5.70639 11.3896 4.51823C12.6305 3.33008 14.2821 2.66679 16 2.66669Z" fill="#E7E8E9"/>
<path d="M18.6667 18.6667C20.4348 18.6667 22.1305 19.3691 23.3807 20.6193C24.6309 21.8696 25.3333 23.5652 25.3333 25.3334V26.6667C25.3333 27.3739 25.0524 28.0522 24.5523 28.5523C24.0522 29.0524 23.3739 29.3334 22.6667 29.3334H9.33332C8.62608 29.3334 7.9478 29.0524 7.4477 28.5523C6.94761 28.0522 6.66666 27.3739 6.66666 26.6667V25.3334C6.66666 23.5652 7.36904 21.8696 8.61928 20.6193C9.86952 19.3691 11.5652 18.6667 13.3333 18.6667H18.6667Z" fill="#E7E8E9"/>
</g>
<defs>
<clipPath id="clip0_13_87">
<rect width="32" height="32" fill="white"/>
</clipPath>
</defs>
</svg>
