<svg width="32" height="32" viewBox="0 0 32 32" fill="none" xmlns="http://www.w3.org/2000/svg">
<path d="M28.9413 8.34535H23.1707V2.94935C24.5097 3.28888 25.741 3.9617 26.75 4.90518C27.759 5.84866 28.5128 7.03211 28.9413 8.34535ZM8.86667 2.94935V8.34535H3.03334C3.46637 7.02399 4.22935 5.83496 5.25011 4.89073C6.27086 3.9465 7.51564 3.27831 8.86667 2.94935ZM20.8173 2.66669H11.22V8.34535H20.8173V2.66669ZM29.3333 10.6987H2.67201C2.66465 10.766 2.66465 10.834 2.67201 10.9014V21.0974C2.67199 23.2759 3.53513 25.3657 5.07248 26.9093C6.60983 28.4529 8.69613 29.3245 10.8747 29.3334H21.068C23.2511 29.3298 25.3438 28.4609 26.8874 26.9171C28.4309 25.3733 29.2995 23.2805 29.3027 21.0974V10.9014C29.3203 10.8351 29.3306 10.7672 29.3333 10.6987ZM20.896 20.2187C20.7728 20.4509 20.602 20.6544 20.3947 20.816L15.688 24.1094C15.4385 24.2836 15.1463 24.3869 14.8427 24.408H14.6853C14.409 24.4121 14.1358 24.3486 13.8897 24.2228C13.6436 24.0971 13.432 23.913 13.2733 23.6867C13.1 23.4267 13.0067 23.12 13.0067 22.8067V16.66C13.0053 16.3534 13.092 16.0534 13.2587 15.796C13.432 15.56 13.6573 15.3667 13.9173 15.232C14.184 15.112 14.472 15.052 14.764 15.0587C15.0453 15.072 15.32 15.152 15.564 15.2947L20.2667 18.1334C20.4968 18.2663 20.6896 18.4553 20.8269 18.6829C20.9642 18.9105 21.0417 19.1691 21.052 19.4347C21.0733 19.7067 21.0187 19.9774 20.8947 20.22" fill="#E7E8E9"/>
</svg>
